<svg width="1800" height="932" viewBox="0 0 1800 932" fill="none" xmlns="http://www.w3.org/2000/svg">
<path d="M0 139.88L95.1638 10.1113L467.168 10.1111C614.239 14.4368 679.124 105.275 692.101 122.577C752.659 23.0879 1016.52 -67.7505 1193.87 70.6698V10.1113H1799.46V317.23H1782.16V485.93H1799.46V788.724L1704.3 918.493H1098.71V866.586C800.241 1035.28 545.029 840.632 536.378 684.909C515.615 705.672 458.517 722.398 432.563 728.166V788.724L337.399 918.493H0V139.88Z" fill="#282A2D"/>
<path d="M164.374 698.786V94.7706H425.091C469.921 94.7706 509.146 103.618 542.768 121.314C576.39 139.01 602.54 163.882 621.219 195.931C639.898 227.98 649.237 265.436 649.237 308.299C649.237 351.556 639.603 389.012 620.334 420.667C601.262 452.323 574.424 476.704 539.819 493.81C505.41 510.916 465.202 519.469 419.193 519.469H328.354V392.059H386.161C405.429 392.059 421.847 388.717 435.414 382.032C449.177 375.15 459.696 365.417 466.971 352.834C474.443 340.25 478.179 325.405 478.179 308.299C478.179 290.997 474.443 276.25 466.971 264.06C459.696 251.673 449.177 242.235 435.414 235.747C421.847 229.062 405.429 225.719 386.161 225.719H328.354V698.786H164.374Z" fill="#FCFCFC"/>
<path d="M1035 283.525C1033.43 263.863 1026.06 248.527 1012.89 237.516C999.908 226.506 980.148 221 953.604 221C936.695 221 922.833 223.065 912.019 227.194C901.402 231.126 893.537 236.533 888.425 243.415C883.313 250.297 880.659 258.161 880.462 267.009C880.069 274.284 881.347 280.871 884.296 286.77C887.442 292.471 892.357 297.682 899.043 302.401C905.728 306.923 914.281 311.052 924.701 314.788C935.122 318.524 947.509 321.866 961.862 324.815L1011.41 335.433C1044.84 342.511 1073.44 351.851 1097.23 363.451C1121.03 375.052 1140.49 388.717 1155.63 404.446C1170.77 419.979 1181.88 437.478 1188.96 456.944C1196.23 476.409 1199.97 497.644 1200.17 520.648C1199.97 560.365 1190.04 593.987 1170.38 621.514C1150.72 649.041 1122.6 669.981 1086.03 684.334C1049.65 698.687 1005.91 705.864 954.784 705.864C902.287 705.864 856.474 698.097 817.347 682.564C778.416 667.031 748.137 643.142 726.509 610.897C705.077 578.454 694.263 536.968 694.067 486.436H849.789C850.772 504.919 855.393 520.452 863.651 533.035C871.909 545.619 883.51 555.155 898.453 561.643C913.592 568.132 931.583 571.376 952.425 571.376C969.924 571.376 984.572 569.213 996.369 564.888C1008.17 560.562 1017.11 554.565 1023.21 546.897C1029.3 539.229 1032.45 530.479 1032.65 520.648C1032.45 511.407 1029.4 503.346 1023.5 496.464C1017.8 489.386 1008.36 483.094 995.189 477.589C982.016 471.887 964.222 466.578 941.807 461.663L881.642 448.686C828.161 437.085 785.986 417.718 755.117 390.585C724.444 363.254 709.206 325.995 709.403 278.806C709.206 240.466 719.431 206.942 740.076 178.236C760.917 149.332 789.722 126.82 826.49 110.697C863.454 94.574 905.826 86.5126 953.604 86.5126C1002.37 86.5126 1044.54 94.6723 1080.13 110.992C1115.72 127.311 1143.15 150.316 1162.41 180.005C1181.88 209.498 1191.71 244.005 1191.91 283.525H1035Z" fill="#FCFCFC"/>
<path d="M1262.54 698.786V94.7706H1697.86V226.899H1426.52V330.714H1675.44V462.842H1426.52V566.657H1696.68V698.786H1262.54Z" fill="#FCFCFC"/>
</svg>
