<svg width="441" height="92" viewBox="0 0 441 92" fill="none" xmlns="http://www.w3.org/2000/svg">
<path fill-rule="evenodd" clip-rule="evenodd" d="M51.3245 8.57601L23.1238 24.5789C22.8438 24.7379 22.7454 25.0936 22.9041 25.3739L39.1738 54.1101C39.334 54.393 39.2321 54.7523 38.9472 54.9089L3.30254 74.503C2.84434 74.7549 2.92321 75.4359 3.42685 75.5764L31.7572 83.4785C31.9057 83.5199 32.0646 83.5009 32.1991 83.4255L59.3404 68.2207C59.6219 68.063 59.722 67.7068 59.5637 67.4255L43.2902 38.5066C43.1315 38.2245 43.2326 37.8672 43.5156 37.7102L80.0145 17.4601C80.4706 17.2071 80.3909 16.5285 79.8886 16.388L51.7697 8.52158C51.62 8.47969 51.4597 8.49929 51.3245 8.57601ZM48.4758 15.0366L29.3614 25.8224C28.999 26.0269 28.961 26.5343 29.2891 26.7904L37.7159 33.3705C37.9901 33.5846 38.3896 33.5127 38.572 33.2164L49.2595 15.8506C49.5753 15.3374 49.0007 14.7404 48.4758 15.0366ZM52.9779 67.0908L33.5845 78.034C33.1313 78.2897 32.5953 77.8691 32.736 77.368L37.0097 62.1512C37.097 61.8406 37.4197 61.6597 37.7302 61.7475L52.8499 66.0211C53.3491 66.1622 53.4297 66.8358 52.9779 67.0908ZM286.798 49.3864V74H278.729V18.7273H286.691V39.2926H287.203C288.175 37.0616 289.659 35.2893 291.656 33.9759C293.654 32.6624 296.262 32.0057 299.483 32.0057C302.326 32.0057 304.809 32.5905 306.932 33.76C309.073 34.9295 310.728 36.6747 311.898 38.9958C313.085 41.2988 313.679 44.1776 313.679 47.6321V74H305.61V48.6037C305.61 45.563 304.827 43.206 303.262 41.5327C301.696 39.8414 299.519 38.9958 296.73 38.9958C294.823 38.9958 293.114 39.4006 291.602 40.2103C290.109 41.0199 288.931 42.2074 288.067 43.7728C287.221 45.3201 286.798 47.1913 286.798 49.3864ZM81.0536 72.2188C84.0043 73.964 87.5219 74.8367 91.6061 74.8367C94.6289 74.8367 97.3187 74.3779 99.6757 73.4603C102.051 72.5246 104.021 71.2202 105.586 69.5469C107.17 67.8556 108.267 65.8854 108.879 63.6364L101.241 62.26C100.755 63.5554 100.054 64.644 99.136 65.5256C98.2184 66.4072 97.1298 67.0729 95.8703 67.5228C94.6109 67.9546 93.2165 68.1705 91.6871 68.1705C89.3301 68.1705 87.27 67.6667 85.5067 66.6591C83.7434 65.6335 82.367 64.1492 81.3774 62.206C80.4728 60.3967 79.9893 58.2286 79.927 55.7017H109.392V52.8409C109.392 49.0805 108.888 45.8869 107.88 43.26C106.873 40.6151 105.496 38.465 103.751 36.8097C102.006 35.1544 100.036 33.9399 97.8405 33.1662C95.6454 32.3925 93.3784 32.0057 91.0394 32.0057C87.189 32.0057 83.8244 32.9143 80.9456 34.7316C78.0848 36.5488 75.8538 39.0767 74.2524 42.3154C72.6691 45.554 71.8774 49.2964 71.8774 53.5426C71.8774 57.8428 72.6691 61.5942 74.2524 64.7969C75.8538 67.9816 78.1208 70.4555 81.0536 72.2188ZM79.9404 49.6563C80.0374 47.8743 80.4804 46.21 81.2695 44.6634C82.1871 42.8821 83.4826 41.4427 85.1559 40.3452C86.8471 39.2297 88.8263 38.6719 91.0934 38.6719C93.1805 38.6719 94.9977 39.1487 96.5451 40.1023C98.1104 41.0559 99.3249 42.3603 100.189 44.0156C101.052 45.653 101.484 47.5332 101.484 49.6563H79.9404ZM119.105 32.5455V74H127.175V48.4418C127.175 46.5706 127.562 44.9243 128.335 43.5029C129.127 42.0815 130.161 40.9749 131.439 40.1833C132.734 39.3736 134.147 38.9688 135.676 38.9688C137.925 38.9688 139.751 39.6525 141.155 41.0199C142.558 42.3873 143.26 44.1956 143.26 46.4446V74H151.303V47.5781C151.303 45.0592 152.031 42.9991 153.489 41.3978C154.946 39.7784 156.988 38.9688 159.615 38.9688C161.738 38.9688 163.564 39.5985 165.094 40.858C166.623 42.1174 167.388 44.1506 167.388 46.9574V74H175.457V46.2017C175.457 41.4517 174.261 37.8982 171.868 35.5412C169.493 33.1842 166.425 32.0057 162.665 32.0057C159.678 32.0057 157.105 32.6714 154.946 34.0029C152.787 35.3163 151.213 37.0796 150.223 39.2926H149.791C148.892 37.0256 147.497 35.2443 145.608 33.9489C143.737 32.6534 141.416 32.0057 138.645 32.0057C135.91 32.0057 133.562 32.6534 131.601 33.9489C129.64 35.2263 128.227 37.0076 127.364 39.2926H126.851V32.5455H119.105ZM199.097 74.9176C196.47 74.9176 194.095 74.4318 191.972 73.4603C189.849 72.4707 188.167 71.0403 186.925 69.1691C185.702 67.2978 185.09 65.0038 185.09 62.287C185.09 59.9479 185.54 58.0228 186.439 56.5114C187.339 55 188.553 53.8035 190.083 52.9219C191.612 52.0403 193.321 51.3745 195.211 50.9247C197.1 50.4749 199.025 50.1331 200.986 49.8992C203.469 49.6113 205.484 49.3774 207.032 49.1975C208.579 48.9995 209.704 48.6847 210.405 48.2529C211.107 47.821 211.458 47.1193 211.458 46.1478V45.9588C211.458 43.6018 210.792 41.7756 209.461 40.4801C208.147 39.1847 206.186 38.537 203.577 38.537C200.86 38.537 198.719 39.1397 197.154 40.3452C195.606 41.5327 194.536 42.8551 193.942 44.3125L186.358 42.5853C187.258 40.0663 188.571 38.0332 190.299 36.4858C192.044 34.9205 194.05 33.787 196.317 33.0852C198.584 32.3656 200.968 32.0057 203.469 32.0057C205.124 32.0057 206.879 32.2036 208.732 32.5995C210.603 32.9773 212.348 33.679 213.968 34.7046C215.605 35.7301 216.945 37.1965 217.989 39.1037C219.033 40.9929 219.554 43.4489 219.554 46.4716V74H211.674V68.3324H211.35C210.828 69.376 210.045 70.4015 209.002 71.4091C207.958 72.4167 206.618 73.2533 204.981 73.9191C203.343 74.5848 201.382 74.9176 199.097 74.9176ZM200.851 68.4404C203.082 68.4404 204.99 67.9995 206.573 67.1179C208.174 66.2363 209.389 65.0848 210.216 63.6634C211.062 62.224 211.485 60.6856 211.485 59.0483V53.7046C211.197 53.9924 210.639 54.2623 209.811 54.5142C209.002 54.7481 208.075 54.955 207.032 55.135C205.988 55.2969 204.972 55.4498 203.982 55.5938C202.992 55.7197 202.165 55.8277 201.499 55.9176C199.934 56.1156 198.503 56.4484 197.208 56.9162C195.93 57.384 194.905 58.0587 194.131 58.9404C193.375 59.804 192.998 60.9555 192.998 62.3949C192.998 64.3921 193.735 65.9034 195.211 66.929C196.686 67.9366 198.566 68.4404 200.851 68.4404ZM231.063 32.5455V89.5455H239.132V67.5497H239.618C240.104 68.4314 240.797 69.4389 241.696 70.5725C242.596 71.706 243.837 72.6956 245.421 73.5412C247.022 74.3869 249.082 74.8097 251.601 74.8097C254.948 74.8097 257.925 73.955 260.534 72.2458C263.143 70.5185 265.194 68.0625 266.688 64.8779C268.181 61.6752 268.928 57.8338 268.928 53.3537C268.928 48.8736 268.172 45.0412 266.661 41.8566C265.167 38.6719 263.107 36.2339 260.48 34.5426C257.853 32.8513 254.867 32.0057 251.52 32.0057C248.947 32.0057 246.878 32.4375 245.313 33.3012C243.747 34.1468 242.524 35.1364 241.642 36.2699C240.761 37.4034 240.086 38.402 239.618 39.2656H238.943V32.5455H231.063ZM240.239 60.9375C239.393 58.7424 238.97 56.1875 238.97 53.2728C238.97 50.394 239.384 47.875 240.212 45.7159C241.039 43.5568 242.254 41.8745 243.855 40.6691C245.475 39.4636 247.454 38.8608 249.793 38.8608C252.222 38.8608 254.246 39.4906 255.865 40.75C257.503 42.0095 258.726 43.7278 259.536 45.9049C260.363 48.0819 260.777 50.5379 260.777 53.2728C260.777 56.0436 260.354 58.5355 259.509 60.7486C258.681 62.9617 257.458 64.7159 255.838 66.0114C254.219 67.2888 252.204 67.9276 249.793 67.9276C247.472 67.9276 245.511 67.3158 243.909 66.0924C242.308 64.8509 241.084 63.1326 240.239 60.9375ZM332.495 72.1648C335.391 73.946 338.783 74.8367 342.669 74.8367C346.556 74.8367 349.947 73.946 352.844 72.1648C355.741 70.3835 357.99 67.8916 359.591 64.6889C361.192 61.4863 361.993 57.7439 361.993 53.4617C361.993 49.1615 361.192 45.4011 359.591 42.1804C357.99 38.9598 355.741 36.4588 352.844 34.6776C349.947 32.8963 346.556 32.0057 342.669 32.0057C338.783 32.0057 335.391 32.8963 332.495 34.6776C329.598 36.4588 327.349 38.9598 325.747 42.1804C324.146 45.4011 323.345 49.1615 323.345 53.4617C323.345 57.7439 324.146 61.4863 325.747 64.6889C327.349 67.8916 329.598 70.3835 332.495 72.1648ZM348.958 66.0654C347.302 67.3968 345.215 68.0625 342.696 68.0625C340.159 68.0625 338.054 67.3968 336.381 66.0654C334.726 64.7339 333.493 62.9617 332.683 60.7486C331.892 58.5355 331.496 56.0976 331.496 53.4347C331.496 50.7898 331.892 48.3608 332.683 46.1478C333.493 43.9167 334.726 42.1264 336.381 40.777C338.054 39.4276 340.159 38.7529 342.696 38.7529C345.215 38.7529 347.302 39.4276 348.958 40.777C350.613 42.1264 351.836 43.9167 352.628 46.1478C353.438 48.3608 353.843 50.7898 353.843 53.4347C353.843 56.0976 353.438 58.5355 352.628 60.7486C351.836 62.9617 350.613 64.7339 348.958 66.0654ZM371.761 32.5455H379.56V39.1307H379.992C380.748 36.8996 382.079 35.1454 383.986 33.8679C385.912 32.5725 388.089 31.9247 390.518 31.9247C391.021 31.9247 391.615 31.9427 392.299 31.9787C393.001 32.0147 393.549 32.0597 393.945 32.1137V39.8324C393.621 39.7424 393.046 39.6435 392.218 39.5355C391.39 39.4096 390.563 39.3466 389.735 39.3466C387.828 39.3466 386.128 39.7514 384.634 40.5611C383.159 41.3528 381.989 42.4593 381.126 43.8807C380.262 45.2841 379.83 46.8854 379.83 48.6847V74H371.761V32.5455ZM407.518 72.2188C410.469 73.964 413.986 74.8367 418.071 74.8367C421.093 74.8367 423.783 74.3779 426.14 73.4603C428.515 72.5246 430.485 71.2202 432.051 69.5469C433.634 67.8556 434.732 65.8854 435.343 63.6364L427.706 62.26C427.22 63.5554 426.518 64.644 425.6 65.5256C424.683 66.4072 423.594 67.0729 422.335 67.5228C421.075 67.9546 419.681 68.1705 418.152 68.1705C415.795 68.1705 413.734 67.6667 411.971 66.6591C410.208 65.6335 408.832 64.1492 407.842 62.206C406.937 60.3967 406.454 58.2286 406.392 55.7017H435.856V52.8409C435.856 49.0805 435.352 45.8869 434.345 43.26C433.337 40.6151 431.961 38.465 430.216 36.8097C428.47 35.1544 426.5 33.9399 424.305 33.1662C422.11 32.3925 419.843 32.0057 417.504 32.0057C413.654 32.0057 410.289 32.9143 407.41 34.7316C404.549 36.5488 402.318 39.0767 400.717 42.3154C399.134 45.554 398.342 49.2964 398.342 53.5426C398.342 57.8428 399.134 61.5942 400.717 64.7969C402.318 67.9816 404.585 70.4555 407.518 72.2188ZM406.405 49.6563C406.502 47.8743 406.945 46.21 407.734 44.6634C408.652 42.8821 409.947 41.4427 411.62 40.3452C413.312 39.2297 415.291 38.6719 417.558 38.6719C419.645 38.6719 421.462 39.1487 423.01 40.1023C424.575 41.0559 425.789 42.3603 426.653 44.0156C427.517 45.653 427.949 47.5332 427.949 49.6563H406.405Z" fill="#1D1D1D"/>
</svg>
