<svg width="307" height="297" viewBox="0 0 307 297" fill="none" xmlns="http://www.w3.org/2000/svg">
<path fill-rule="evenodd" clip-rule="evenodd" d="M79.6904 63.6726L191.365 0.301019C191.901 -0.00282284 192.535 -0.0804208 193.128 0.0854393L304.479 31.2364C306.468 31.7928 306.784 34.4801 304.978 35.482L160.442 115.672C159.321 116.294 158.921 117.709 159.549 118.826L223.992 233.345C224.619 234.459 224.223 235.87 223.108 236.494L115.628 296.705C115.096 297.004 114.467 297.079 113.878 296.915L1.69033 265.623C-0.304074 265.066 -0.616403 262.37 1.19806 261.372L142.351 183.779C143.479 183.159 143.883 181.736 143.248 180.616L78.8201 66.8205C78.1918 65.7108 78.5813 64.3019 79.6904 63.6726ZM104.391 68.5965L180.084 25.8849C182.163 24.7122 184.438 27.076 183.188 29.1083L140.865 97.8769C140.143 99.0502 138.561 99.3349 137.475 98.487L104.105 72.43C102.806 71.4157 102.956 69.4065 104.391 68.5965ZM121.115 275.355L197.913 232.02C199.702 231.01 199.382 228.342 197.406 227.784L137.532 210.86C136.302 210.512 135.024 211.229 134.679 212.459L117.755 272.717C117.198 274.702 119.32 276.367 121.115 275.355Z" fill="black"/>
</svg>
