<?xml version="1.0" encoding="UTF-8" standalone="no"?>
<svg
   xmlns:dc="http://purl.org/dc/elements/1.1/"
   xmlns:cc="http://creativecommons.org/ns#"
   xmlns:rdf="http://www.w3.org/1999/02/22-rdf-syntax-ns#"
   xmlns:svg="http://www.w3.org/2000/svg"
   xmlns="http://www.w3.org/2000/svg"
   xmlns:sodipodi="http://sodipodi.sourceforge.net/DTD/sodipodi-0.dtd"
   xmlns:inkscape="http://www.inkscape.org/namespaces/inkscape"
   width="200"
   height="208.931"
   viewBox="0 0 200 208.931"
   version="1.1"
   id="svg4"
   sodipodi:docname="Vector.svg"
   inkscape:version="0.92.4 (5da689c313, 2019-01-14)"
   style="fill:none">
  <metadata
     id="metadata10">
    <rdf:RDF>
      <cc:Work
         rdf:about="">
        <dc:format>image/svg+xml</dc:format>
        <dc:type
           rdf:resource="http://purl.org/dc/dcmitype/StillImage" />
        <dc:title></dc:title>
      </cc:Work>
    </rdf:RDF>
  </metadata>
  <defs
     id="defs8" />
  <sodipodi:namedview
     pagecolor="#ffffff"
     bordercolor="#666666"
     borderopacity="1"
     objecttolerance="10"
     gridtolerance="10"
     guidetolerance="10"
     inkscape:pageopacity="0"
     inkscape:pageshadow="2"
     inkscape:window-width="1440"
     inkscape:window-height="864"
     id="namedview6"
     showgrid="false"
     inkscape:zoom="2"
     inkscape:cx="55.82839"
     inkscape:cy="100.45227"
     inkscape:window-x="1920"
     inkscape:window-y="0"
     inkscape:window-maximized="1"
     inkscape:current-layer="svg4" />
  <path
     d="m 54.625407,30.558138 c -0.108043,0.08166 -0.181676,0.138887 -0.220009,0.169018 l -0.0287,0.02264 C 50.864045,33.576749 45.723612,33.030649 42.884,29.524058 40.038684,26.011048 40.580326,20.85653 44.093514,18.011392 l 5.128666,6.332831 c -5.128666,-6.332831 -5.125457,-6.335327 -5.122069,-6.33818 l 0.0075,-0.0061 0.01765,-0.01408 0.046,-0.03691 c 0.0353,-0.02817 0.08005,-0.06365 0.134252,-0.105904 0.108221,-0.08487 0.253705,-0.197544 0.435738,-0.33554 0.364067,-0.275635 0.874865,-0.652717 1.525977,-1.110153 1.301155,-0.91416 3.168555,-2.153234 5.550677,-3.547277 4.75515,-2.782684 11.619461,-6.216658 20.175379,-8.902994 17.192959,-5.398115 41.235436,-7.760749 68.330396,4.191917 26.72019,11.787356 41.69755,29.114031 49.94699,43.716627 4.10065,7.259756 6.51469,13.798867 7.91248,18.585753 0.70067,2.396206 1.14818,4.362914 1.42631,5.773538 0.13906,0.70549 0.23534,1.273698 0.30131,1.688398 0.0321,0.207351 0.0571,0.376547 0.0749,0.505272 0.004,0.02995 0.007,0.05723 0.0107,0.0829 0.004,0.0296 0.007,0.05616 0.0107,0.08023 l 0.007,0.05848 0.004,0.02336 v 0.01034 c 0.002,0.005 0.002,0.0093 -8.12464,0.983978 l 8.12642,-0.974707 c 0.53844,4.488964 -2.66364,8.563763 -7.15296,9.10184 -4.47684,0.536472 -8.54183,-2.647238 -9.09809,-7.117125 l -0.002,-0.01355 c -0.002,-0.02407 -0.009,-0.06935 -0.0196,-0.135857 -0.002,-0.02193 -0.007,-0.04528 -0.0107,-0.07149 -0.0321,-0.211808 -0.0927,-0.56803 -0.18899,-1.054937 -0.19255,-0.973994 -0.52774,-2.463243 -1.07865,-4.351861 C 181.36525,71.2485 179.40407,65.904461 176.0164,59.907705 169.28794,47.996206 156.8291,33.313202 133.71658,23.11738 110.97883,13.086921 91.133994,15.096454 76.897069,19.566217 c -7.158488,2.247691 -12.894228,5.121712 -16.810706,7.413441 -1.953693,1.143012 -3.439555,2.132873 -4.4082,2.813225 -0.48352,0.339819 -0.836532,0.601548 -1.052619,0.765217 z M 30.36471,42.058502 c 3.797915,2.452189 4.88851,7.518989 2.436321,11.316726 C 15.336306,80.422229 13.77173,107.25707 20.342898,122.8957 c 1.751334,4.16751 -0.207707,8.9658 -4.375395,10.71696 -4.167776,1.75169 -8.9660544,-0.20735 -10.7172997,-4.37539 -9.1831219,-21.85469 -5.79143094,-54.40512 13.7977807,-84.742625 2.452367,-3.797737 7.518988,-4.88851 11.316726,-2.436143 z M 87.778811,70.17185 c 8.559306,-8.559306 20.741449,-11.42156 30.899649,-9.284052 9.98954,2.10203 16.91019,8.612258 17.73692,18.397837 0.38083,4.504654 4.34099,7.847576 8.84582,7.467285 4.50483,-0.380826 7.84775,-4.340984 7.46728,-8.845817 -1.56823,-18.56525 -15.29703,-29.802459 -30.67857,-33.039477 -15.21359,-3.20136 -33.124521,1.005373 -45.847057,13.728265 -5.954145,5.954145 -9.088112,14.616502 -10.102577,23.100035 -1.02962,8.610654 -0.01801,18.082265 3.419408,26.458294 3.454352,8.41792 9.584112,16.19311 18.999562,20.23885 9.468046,4.06927 20.917774,3.79381 33.839994,-1.27263 10.93537,-4.28696 19.02042,-4.70719 24.79343,-3.40782 5.65997,1.2737 9.77399,4.34437 12.69668,8.42951 6.20892,8.67609 6.8693,21.77071 3.31404,29.92548 -7.4951,17.19545 -29.0023,30.01088 -60.43575,30.01088 -29.598136,0 -53.676622,-18.73445 -67.694607,-41.64728 -2.3593,-3.85639 -7.39793,-5.07019 -11.254325,-2.71106 -3.856216,2.35912 -5.06983,7.39811 -2.71053,11.2545 15.99646,26.147 44.68176,49.47435 81.659462,49.47435 35.14205,0 64.3845,-14.46995 75.44253,-39.83943 5.72308,-13.12743 4.74605,-32.36554 -5.00743,-45.99485 -5.05753,-7.06792 -12.50574,-12.64338 -22.41505,-14.8736 -9.79699,-2.20526 -21.28826,-0.98826 -34.36381,4.13809 -10.07155,3.94804 -16.905734,3.40515 -21.40076,1.47338 -4.548335,-1.95476 -8.060988,-5.91385 -10.318129,-11.41389 -2.274435,-5.541584 -3.042148,-12.17305 -2.309379,-18.299065 0.747566,-6.254206 2.91895,-10.963536 5.423199,-13.467785 z m 111.827059,42.1406 c -1.92195,4.0921 -6.79638,5.85145 -10.88812,3.93003 -4.09173,-1.92142 -5.85145,-6.79656 -3.93127,-10.88829 1.92196,-4.09228 6.79638,-5.85199 10.8899,-3.93003 4.09174,1.92124 5.85145,6.79602 3.92949,10.88829 z M 52.2522,102.22343 c -0.519,-4.477913 -4.563311,-7.69532 -9.046392,-7.190583 -4.492352,0.505271 -7.724199,4.557071 -7.21875,9.049243 l 8.134265,-0.91498 c -8.134265,0.91498 -8.133908,0.91837 -8.133373,0.92211 l 7.13e-4,0.008 0.0021,0.0169 0.005,0.0431 c 0.0039,0.0326 0.0087,0.0726 0.0148,0.11999 0.01177,0.0945 0.02799,0.21823 0.04921,0.36942 0.04225,0.30345 0.104656,0.71815 0.192196,1.2334 0.174723,1.02962 0.450893,2.46538 0.870943,4.21387 0.83778,3.48751 2.260884,8.27654 4.625177,13.6015 4.717709,10.62532 13.353145,23.74009 28.871077,32.57984 15.4254,8.78699 30.222504,9.61906 41.101174,8.2375 5.41874,-0.68873 9.88917,-1.92642 13.04488,-3.00952 1.58143,-0.54307 2.84479,-1.05173 3.74568,-1.44076 0.45072,-0.19487 0.81193,-0.36014 1.07776,-0.48619 0.13318,-0.0628 0.24283,-0.11625 0.32787,-0.15779 0.0225,-0.0114 0.0431,-0.0217 0.0622,-0.031 0.0169,-0.008 0.0328,-0.0164 0.0471,-0.0235 l 0.0408,-0.0207 0.0169,-0.008 0.008,-0.004 c 0.003,-0.002 0.007,-0.004 -3.67205,-7.20163 l 3.67918,7.19771 c 4.02505,-2.05728 5.62056,-6.98822 3.56328,-11.01381 -2.05121,-4.01311 -6.95809,-5.61094 -10.97726,-3.58255 l -0.0251,0.0127 c -0.0162,0.008 -0.0387,0.0185 -0.0676,0.0321 -0.10751,0.0508 -0.30131,0.14031 -0.57569,0.25923 -0.55003,0.2373 -1.41936,0.59049 -2.56701,0.98451 -2.30225,0.79018 -5.67423,1.72923 -9.792,2.2525 -8.19417,1.04068 -19.248451,0.43503 -30.934592,-6.2214 -11.593684,-6.60427 -18.233172,-16.48738 -22.012189,-24.99872 -1.884338,-4.24382 -3.015048,-8.05832 -3.669369,-10.78186 -0.325913,-1.3566 -0.530054,-2.42883 -0.649151,-3.13005 -0.05955,-0.35033 -0.09752,-0.60743 -0.118741,-0.75915 -0.0107,-0.0758 -0.01711,-0.12552 -0.01979,-0.1478 l -8.91e-4,-0.007 z"
     id="path2"
     inkscape:connector-curvature="0"
     style="clip-rule:evenodd;fill:#ffffff;fill-rule:evenodd;stroke-width:1.78289163"
     inkscape:export-xdpi="96.031799"
     inkscape:export-ydpi="96.031799" />
</svg>
