<svg width="315" height="49" viewBox="0 0 315 49" fill="none" xmlns="http://www.w3.org/2000/svg">
<path d="M76.474 14.748C76.474 13.6373 76.2453 12.6573 75.788 11.808C75.3633 10.9587 74.7753 10.2563 74.024 9.701C73.2727 9.14567 72.407 8.721 71.427 8.427C70.447 8.133 69.418 7.986 68.34 7.986C67.3927 7.986 66.4943 8.11667 65.645 8.378C64.7957 8.60667 64.028 8.94967 63.342 9.407C62.6887 9.86433 62.166 10.436 61.774 11.122C61.382 11.7753 61.186 12.543 61.186 13.425V13.719C61.186 14.6663 61.382 15.483 61.774 16.169C62.166 16.8223 62.7377 17.394 63.489 17.884C64.273 18.3413 65.2367 18.7333 66.38 19.06C67.5233 19.354 68.8627 19.6153 70.398 19.844C73.9913 20.3993 76.6373 21.461 78.336 23.029C80.0347 24.5643 80.884 26.6387 80.884 29.252V29.84C80.884 31.31 80.6227 32.6657 80.1 33.907C79.61 35.1157 78.8587 36.161 77.846 37.043C76.866 37.925 75.641 38.611 74.171 39.101C72.701 39.591 71.0023 39.836 69.075 39.836C66.8863 39.836 64.9427 39.5257 63.244 38.905C61.578 38.2517 60.1733 37.3697 59.03 36.259C57.9193 35.1157 57.07 33.7927 56.482 32.29C55.894 30.7547 55.6 29.0887 55.6 27.292V25.822H59.716V26.998C59.716 30.0033 60.5327 32.2573 62.166 33.76C63.832 35.2627 66.135 36.014 69.075 36.014C71.623 36.014 73.534 35.4587 74.808 34.348C76.1147 33.2047 76.768 31.702 76.768 29.84V29.546C76.768 27.7493 76.0983 26.3773 74.759 25.43C73.4523 24.4827 71.3127 23.7967 68.34 23.372C66.6087 23.1433 65.0407 22.8003 63.636 22.343C62.264 21.853 61.088 21.2323 60.108 20.481C59.128 19.697 58.3767 18.766 57.854 17.688C57.3313 16.61 57.07 15.336 57.07 13.866V13.278C57.07 11.9387 57.3477 10.7137 57.903 9.603C58.4583 8.49233 59.226 7.52867 60.206 6.712C61.2187 5.89533 62.411 5.27467 63.783 4.85C65.1877 4.39267 66.723 4.164 68.389 4.164C70.3163 4.164 72.0313 4.44167 73.534 4.997C75.0693 5.55234 76.3597 6.30367 77.405 7.251C78.4503 8.16567 79.2343 9.26 79.757 10.534C80.3123 11.7753 80.59 13.082 80.59 14.454V16.512H76.474V14.748Z" fill="black"/>
<path d="M89.9639 28.174C90.0619 30.5913 90.8133 32.535 92.2179 34.005C93.6226 35.475 95.5826 36.21 98.0979 36.21C99.2413 36.21 100.238 36.0793 101.087 35.818C101.936 35.5567 102.655 35.1973 103.243 34.74C103.864 34.2827 104.354 33.76 104.713 33.172C105.105 32.5513 105.415 31.898 105.644 31.212L109.27 32.192C108.584 34.446 107.31 36.2917 105.448 37.729C103.619 39.1337 101.136 39.836 97.9999 39.836C96.2686 39.836 94.6679 39.542 93.1979 38.954C91.7606 38.3333 90.5193 37.4677 89.4739 36.357C88.4286 35.2463 87.6119 33.9233 87.0239 32.388C86.4359 30.8527 86.1419 29.154 86.1419 27.292V26.116C86.1419 24.4173 86.4359 22.833 87.0239 21.363C87.6446 19.893 88.4939 18.6353 89.5719 17.59C90.6499 16.512 91.9076 15.679 93.3449 15.091C94.8149 14.4703 96.3993 14.16 98.0979 14.16C100.091 14.16 101.806 14.5357 103.243 15.287C104.713 16.0057 105.905 16.904 106.82 17.982C107.767 19.06 108.453 20.236 108.878 21.51C109.335 22.784 109.564 23.96 109.564 25.038V28.174H89.9639ZM98.0979 17.786C97.0199 17.786 96.0073 17.9657 95.0599 18.325C94.1453 18.6517 93.3286 19.1253 92.6099 19.746C91.9239 20.3667 91.3523 21.1017 90.8949 21.951C90.4703 22.7677 90.1926 23.666 90.0619 24.646H105.742C105.677 23.6007 105.415 22.6533 104.958 21.804C104.533 20.9547 103.962 20.236 103.243 19.648C102.557 19.06 101.757 18.6027 100.842 18.276C99.9599 17.9493 99.0453 17.786 98.0979 17.786Z" fill="black"/>
<path d="M140.057 39.15H136.235V21.706C136.235 20.5627 135.974 19.6317 135.451 18.913C134.928 18.1617 134.095 17.786 132.952 17.786C131.874 17.786 130.992 18.1943 130.306 19.011C129.653 19.795 129.326 21.02 129.326 22.686V39.15H125.504V21.51C125.504 20.432 125.21 19.55 124.622 18.864C124.034 18.1453 123.25 17.786 122.27 17.786C121.094 17.786 120.179 18.2107 119.526 19.06C118.905 19.9093 118.595 21.02 118.595 22.392V39.15H114.773V14.846H118.595V17.492H119.183C119.608 16.3487 120.228 15.5157 121.045 14.993C121.862 14.4377 122.825 14.16 123.936 14.16C125.112 14.16 126.076 14.4703 126.827 15.091C127.611 15.7117 128.15 16.512 128.444 17.492H129.032C130.143 15.2707 131.907 14.16 134.324 14.16C136.153 14.16 137.558 14.748 138.538 15.924C139.551 17.0673 140.057 18.57 140.057 20.432V39.15Z" fill="black"/>
<path d="M164.63 35.034H164.042C163.258 36.6673 162.164 37.876 160.759 38.66C159.387 39.444 157.933 39.836 156.398 39.836C154.797 39.836 153.311 39.5747 151.939 39.052C150.567 38.4967 149.358 37.6963 148.313 36.651C147.3 35.573 146.5 34.2663 145.912 32.731C145.324 31.1957 145.03 29.4153 145.03 27.39V26.606C145.03 24.6133 145.324 22.8493 145.912 21.314C146.5 19.7787 147.3 18.4883 148.313 17.443C149.358 16.365 150.567 15.5483 151.939 14.993C153.311 14.4377 154.765 14.16 156.3 14.16C157.966 14.16 159.469 14.5357 160.808 15.287C162.18 16.0057 163.258 17.1327 164.042 18.668H164.63V14.846H168.452V34.152C168.452 35.132 168.893 35.622 169.775 35.622H171V39.15H168.403C167.292 39.15 166.378 38.7907 165.659 38.072C164.973 37.3533 164.63 36.4387 164.63 35.328V35.034ZM156.79 36.21C157.933 36.21 158.979 35.9977 159.926 35.573C160.906 35.1483 161.739 34.544 162.425 33.76C163.111 32.976 163.65 32.045 164.042 30.967C164.434 29.8563 164.63 28.6313 164.63 27.292V26.704C164.63 25.3973 164.434 24.205 164.042 23.127C163.65 22.0163 163.095 21.069 162.376 20.285C161.69 19.501 160.857 18.8967 159.877 18.472C158.93 18.0147 157.901 17.786 156.79 17.786C155.647 17.786 154.601 17.9983 153.654 18.423C152.707 18.8477 151.874 19.452 151.155 20.236C150.469 20.9873 149.93 21.9183 149.538 23.029C149.146 24.107 148.95 25.2993 148.95 26.606V27.39C148.95 30.1667 149.669 32.339 151.106 33.907C152.576 35.4423 154.471 36.21 156.79 36.21Z" fill="black"/>
<path d="M179.65 48.95H175.828V14.846H179.65V18.668H180.238C181.087 17.198 182.263 16.0873 183.766 15.336C185.268 14.552 186.902 14.16 188.666 14.16C190.168 14.16 191.589 14.4377 192.929 14.993C194.268 15.5483 195.444 16.3487 196.457 17.394C197.502 18.4393 198.319 19.7297 198.907 21.265C199.527 22.8003 199.838 24.548 199.838 26.508V27.488C199.838 29.4807 199.544 31.2447 198.956 32.78C198.368 34.3153 197.551 35.6057 196.506 36.651C195.493 37.6963 194.301 38.4967 192.929 39.052C191.557 39.5747 190.103 39.836 188.568 39.836C187.784 39.836 186.983 39.738 186.167 39.542C185.35 39.3787 184.566 39.1173 183.815 38.758C183.096 38.366 182.426 37.9087 181.806 37.386C181.185 36.8307 180.662 36.1773 180.238 35.426H179.65V48.95ZM187.784 36.21C188.96 36.21 190.038 36.014 191.018 35.622C191.998 35.1973 192.847 34.6093 193.566 33.858C194.317 33.1067 194.889 32.192 195.281 31.114C195.705 30.036 195.918 28.8273 195.918 27.488V26.508C195.918 25.2013 195.705 24.0253 195.281 22.98C194.889 21.902 194.317 20.9873 193.566 20.236C192.847 19.452 191.981 18.8477 190.969 18.423C189.989 17.9983 188.927 17.786 187.784 17.786C186.64 17.786 185.579 18.0147 184.599 18.472C183.619 18.8967 182.753 19.501 182.002 20.285C181.283 21.069 180.711 22.0163 180.287 23.127C179.862 24.205 179.65 25.3973 179.65 26.704V27.292C179.65 28.6313 179.862 29.8563 180.287 30.967C180.711 32.045 181.283 32.976 182.002 33.76C182.753 34.544 183.619 35.1483 184.599 35.573C185.579 35.9977 186.64 36.21 187.784 36.21Z" fill="black"/>
<path d="M209.045 39.15H205.223V4.85H209.045V19.256H209.633C210.384 17.688 211.429 16.4467 212.769 15.532C214.141 14.6173 215.807 14.16 217.767 14.16C220.413 14.16 222.552 15.042 224.186 16.806C225.852 18.5373 226.685 21.1507 226.685 24.646V39.15H222.863V25.43C222.863 22.882 222.291 20.971 221.148 19.697C220.004 18.423 218.453 17.786 216.493 17.786C214.173 17.786 212.344 18.5863 211.005 20.187C209.698 21.755 209.045 23.862 209.045 26.508V39.15Z" fill="black"/>
<path d="M256.668 27.292C256.668 29.3173 256.325 31.114 255.639 32.682C254.985 34.2173 254.103 35.524 252.993 36.602C251.882 37.6473 250.575 38.4477 249.073 39.003C247.603 39.5583 246.067 39.836 244.467 39.836C242.833 39.836 241.282 39.5583 239.812 39.003C238.342 38.4477 237.051 37.6473 235.941 36.602C234.83 35.524 233.932 34.2173 233.246 32.682C232.592 31.114 232.266 29.3173 232.266 27.292V26.704C232.266 24.7113 232.592 22.9473 233.246 21.412C233.932 19.844 234.83 18.521 235.941 17.443C237.084 16.365 238.391 15.5483 239.861 14.993C241.331 14.4377 242.866 14.16 244.467 14.16C246.067 14.16 247.603 14.4377 249.073 14.993C250.543 15.5483 251.833 16.365 252.944 17.443C254.087 18.521 254.985 19.844 255.639 21.412C256.325 22.9473 256.668 24.7113 256.668 26.704V27.292ZM244.467 36.21C245.643 36.21 246.721 36.014 247.701 35.622C248.713 35.1973 249.595 34.593 250.347 33.809C251.098 33.025 251.686 32.094 252.111 31.016C252.535 29.9053 252.748 28.664 252.748 27.292V26.704C252.748 25.3973 252.535 24.205 252.111 23.127C251.686 22.0163 251.098 21.069 250.347 20.285C249.595 19.501 248.713 18.8967 247.701 18.472C246.688 18.0147 245.61 17.786 244.467 17.786C243.323 17.786 242.245 18.0147 241.233 18.472C240.22 18.8967 239.338 19.501 238.587 20.285C237.835 21.069 237.247 22.0163 236.823 23.127C236.398 24.205 236.186 25.3973 236.186 26.704V27.292C236.186 28.664 236.398 29.9053 236.823 31.016C237.247 32.094 237.835 33.025 238.587 33.809C239.338 34.593 240.204 35.1973 241.184 35.622C242.196 36.014 243.291 36.21 244.467 36.21Z" fill="black"/>
<path d="M262.088 14.846H270.908V18.08H271.496C272.117 16.7407 272.999 15.7607 274.142 15.14C275.285 14.4867 276.592 14.16 278.062 14.16C280.512 14.16 282.488 14.9603 283.991 16.561C285.494 18.1617 286.294 20.4973 286.392 23.568L282.374 24.156C282.374 21.902 281.835 20.285 280.757 19.305C279.679 18.2923 278.356 17.786 276.788 17.786C275.775 17.786 274.893 17.982 274.142 18.374C273.423 18.766 272.819 19.305 272.329 19.991C271.839 20.677 271.48 21.4773 271.251 22.392C271.022 23.3067 270.908 24.2867 270.908 25.332V35.622H277.082V39.15H261.5V35.622H267.086V18.374H262.088V14.846Z" fill="black"/>
<path d="M295.322 28.174C295.42 30.5913 296.171 32.535 297.576 34.005C298.981 35.475 300.941 36.21 303.456 36.21C304.599 36.21 305.596 36.0793 306.445 35.818C307.294 35.5567 308.013 35.1973 308.601 34.74C309.222 34.2827 309.712 33.76 310.071 33.172C310.463 32.5513 310.773 31.898 311.002 31.212L314.628 32.192C313.942 34.446 312.668 36.2917 310.806 37.729C308.977 39.1337 306.494 39.836 303.358 39.836C301.627 39.836 300.026 39.542 298.556 38.954C297.119 38.3333 295.877 37.4677 294.832 36.357C293.787 35.2463 292.97 33.9233 292.382 32.388C291.794 30.8527 291.5 29.154 291.5 27.292V26.116C291.5 24.4173 291.794 22.833 292.382 21.363C293.003 19.893 293.852 18.6353 294.93 17.59C296.008 16.512 297.266 15.679 298.703 15.091C300.173 14.4703 301.757 14.16 303.456 14.16C305.449 14.16 307.164 14.5357 308.601 15.287C310.071 16.0057 311.263 16.904 312.178 17.982C313.125 19.06 313.811 20.236 314.236 21.51C314.693 22.784 314.922 23.96 314.922 25.038V28.174H295.322ZM303.456 17.786C302.378 17.786 301.365 17.9657 300.418 18.325C299.503 18.6517 298.687 19.1253 297.968 19.746C297.282 20.3667 296.71 21.1017 296.253 21.951C295.828 22.7677 295.551 23.666 295.42 24.646H311.1C311.035 23.6007 310.773 22.6533 310.316 21.804C309.891 20.9547 309.32 20.236 308.601 19.648C307.915 19.06 307.115 18.6027 306.2 18.276C305.318 17.9493 304.403 17.786 303.456 17.786Z" fill="black"/>
<path fill-rule="evenodd" clip-rule="evenodd" d="M22.1253 44L22.1253 0H24.41L24.41 44H22.1253Z" fill="black"/>
<path fill-rule="evenodd" clip-rule="evenodd" d="M18.4109 13.7701L1.69706 7.48824L3.30151 3.20001L23.7297 10.878L23.3953 11.7719L38.3029 5.7953L40 10.0476L8.10556 22.8342L38.9833 33.887L37.4465 38.2L1.69706 25.4034L0 21.1512L18.4109 13.7701Z" fill="black"/>
</svg>
