<svg xmlns="http://www.w3.org/2000/svg" xmlns:xlink="http://www.w3.org/1999/xlink" xmlns:lucid="lucid" width="950.83" height="805.2"><g transform="translate(-200 80)" lucid:page-tab-id="0_0"><path d="M480 200h116.78v200.2H480V200z" fill="#29aae1"/><path d="M524.57 339h59.38c1.87 0 1.87 0 1.87 2 0 1.8 0 1.8-1.87 1.8h-59.38c-2 0-2 0-2-1.8 0-2 0-2 2-2zM524.68 349.2h59.15c2.57 0 2.57 0 2.57 2.6v.6c0 2.6 0 2.6-2.57 2.6h-59.15c-2.68 0-2.68 0-2.68-2.6v-.6c0-2.6 0-2.6 2.68-2.6zM524.92 361.8h59.26c2.57 0 2.57 0 2.57 2.6v.6c0 2.6 0 2.6-2.57 2.6h-59.26c-2.57 0-2.57 0-2.57-2.6v-.6c0-2.6 0-2.6 2.57-2.6zM578.93 297.2c0 5.2-4.2 9.4-9.56 9.4-5.37 0-9.7-4.2-9.7-9.4s4.33-9.4 9.7-9.4c5.36 0 9.56 4.2 9.56 9.4z" fill="#fff"/><path d="M575.08 297.2c0 3.2-2.56 5.8-5.83 5.8s-5.95-2.6-5.95-5.8c0-3.2 2.68-5.8 5.95-5.8s5.83 2.6 5.83 5.8z" fill="#54bbe7"/><use xlink:href="#a" transform="matrix(1,0,0,1,450,399.9999999999999) translate(62.05 18.6)"/><path d="M1121.83 577.3c0 8.48-9.54 15.32-21.3 15.32-11.82 0-21.36-6.84-21.36-15.3 0-8.48 9.54-15.32 21.36-15.32 11.76 0 21.3 6.84 21.3 15.3zM1082.23 594.13h37.02c11.4 0 11.4 0 11.4 8.24 0 8.23 0 8.23-11.4 8.23h-37.02c-11.4 0-11.4 0-11.4-8.23 0-8.24 0-8.24 11.4-8.24z" fill="#29aae1"/><path d="M1084.75 607.94h31.5v33.98h-31.5v-33.98z" fill="#29aae1"/><path d="M1084.75 640.65h14.22v37.47h-14.22v-37.47zM1103.05 641h13.2v36.88h-13.2V641zM1070.95 600.28h10.8v32.83h-10.8V600.3zM1119.67 600.74h10.92v32.83h-10.93v-32.83z" fill="#29aae1"/><use xlink:href="#b" transform="matrix(1,0,0,1,1040.8333333333335,678.0000000000002) translate(41.05 18.6)"/><path d="M905.98 560h118.05c9.15 0 9.15 0 9.15 10.08v65.76c0 10.08 0 10.08-9.15 10.08H905.98c-9.15 0-9.15 0-9.15-10.08v-65.76c0-10.08 0-10.08 9.15-10.08z" fill="#29aae1"/><path d="M905.98 568.4h118.8V635h-118.8v-66.6z" fill="#fff"/><path d="M907.48 570.92h115.8v61.56h-115.8v-61.56z" fill="gray"/><path d="M890.83 665.72h149.85V680H890.83v-14.28z" fill="#29aae1"/><path d="M931.78 649.04h103.65l5.25 16.92H937.03l-5.25-16.92z" fill="#29aae1"/><path d="M998.38 649.04h-102.3l-5.25 16.8h102.3l5.25-16.8z" fill="#29aae1"/><path d="M939.73 652.28h89.7l3.6 11.28h-89.7l-3.6-11.28z" fill="#fff"/><path d="M976.63 652.28h-75.3l-3 11.28h75.3l3-11.28z" fill="#fff"/><use xlink:href="#c" transform="matrix(1,0,0,1,860.8333333333335,680.0000000000002) translate(47.55 18.6)"/><use xlink:href="#d" transform="matrix(1,0,0,1,860.8333333333335,680.0000000000002) translate(107.55 18.6)"/><path d="M1010.4 559h-2V301H800.77v-2h209.63zM615.3 301v-2h52.62v2z"/><path d="M1010.4 560h-2v-1.03h2zM614.3 304.64L600 300l14.27-4.64z"/><path d="M615.3 306l-18.52-6 18.5-6zm-12.04-6l10.03 3.26v-6.52z"/><use xlink:href="#e" transform="matrix(1,0,0,1,667.917043782289,289.19999999999993) translate(0 14.4)"/><use xlink:href="#f" transform="matrix(1,0,0,1,667.917043782289,289.19999999999993) translate(85.95 14.4)"/><path d="M220 160h160v120H220z" stroke="#000" stroke-width="2" fill="#fff"/><use xlink:href="#g" transform="matrix(1,0,0,1,225,165) translate(28.049999999999997 58.6)"/><use xlink:href="#h" transform="matrix(1,0,0,1,225,165) translate(91 58.6)"/><path d="M479 300h-48.5v-80h-31" stroke="#000" stroke-width="2" fill="none"/><path d="M480 301h-1.03v-2H480z"/><path d="M384.24 220l14.26-4.64v9.28z" stroke="#000" stroke-width="2"/><path d="M220 320h160v120H220z" stroke="#000" stroke-width="2" fill="#fff"/><use xlink:href="#i" transform="matrix(1,0,0,1,225,325) translate(27.574999999999996 58.6)"/><use xlink:href="#h" transform="matrix(1,0,0,1,225,325) translate(91.475 58.6)"/><path d="M479 300h-48.5v80h-31" stroke="#000" stroke-width="2" fill="none"/><path d="M480 301h-1.03v-2H480z"/><path d="M384.24 380l14.26-4.64v9.28z" stroke="#000" stroke-width="2"/><path d="M1121.83-40.7c0 8.48-9.54 15.32-21.3 15.32-11.82 0-21.36-6.84-21.36-15.3 0-8.48 9.54-15.32 21.36-15.32 11.76 0 21.3 6.84 21.3 15.3zM1082.23-23.87h37.02c11.4 0 11.4 0 11.4 8.24 0 8.23 0 8.23-11.4 8.23h-37.02c-11.4 0-11.4 0-11.4-8.23 0-8.24 0-8.24 11.4-8.24z" fill="#29aae1"/><path d="M1084.75-10.06h31.5v33.98h-31.5v-33.98z" fill="#29aae1"/><path d="M1084.75 22.65h14.22v37.47h-14.22V22.65zM1103.05 23h13.2v36.88h-13.2V23zM1070.95-17.72h10.8V15.1h-10.8V-17.7zM1119.67-17.26h10.92v32.83h-10.93v-32.83z" fill="#29aae1"/><use xlink:href="#j" transform="matrix(1,0,0,1,1040.8333333333335,60) translate(33.55 18.6)"/><path d="M905.98-60h118.05c9.15 0 9.15 0 9.15 10.08v65.76c0 10.08 0 10.08-9.15 10.08H905.98c-9.15 0-9.15 0-9.15-10.08v-65.76c0-10.08 0-10.08 9.15-10.08z" fill="#29aae1"/><path d="M905.98-51.6h118.8V15h-118.8v-66.6z" fill="#fff"/><path d="M907.48-49.08h115.8v61.56h-115.8v-61.56z" fill="gray"/><path d="M890.83 45.72h149.85V60H890.83V45.72z" fill="#29aae1"/><path d="M931.78 29.04h103.65l5.25 16.92H937.03l-5.25-16.92z" fill="#29aae1"/><path d="M998.38 29.04h-102.3l-5.25 16.8h102.3l5.25-16.8z" fill="#29aae1"/><path d="M939.73 32.28h89.7l3.6 11.28h-89.7l-3.6-11.28z" fill="#fff"/><path d="M976.63 32.28h-75.3l-3 11.28h75.3l3-11.28z" fill="#fff"/><use xlink:href="#k" transform="matrix(1,0,0,1,860.8333333333335,60) translate(47.55 18.6)"/><use xlink:href="#l" transform="matrix(1,0,0,1,860.8333333333335,60) translate(107.55 18.6)"/><path d="M624.06 36.96H568.5v147.02h-2V34.96h57.56zm268.86 0h-72.16v-2h72.16z"/><path d="M893.6 36.96h-.7v-2h1.33zM567.5 199.24l-4.64-14.26h9.28z"/><path d="M567.5 202.48l-6-18.5h12zm-3.26-16.5L567.5 196l3.26-10.02z"/><use xlink:href="#m" transform="matrix(1,0,0,1,624.0618613530647,25.164412811387987) translate(0 14.4)"/><use xlink:href="#n" transform="matrix(1,0,0,1,624.0618613530647,25.164412811387987) translate(37 14.4)"/><use xlink:href="#o" transform="matrix(1,0,0,1,624.0618613530647,25.164412811387987) translate(98.9 14.4)"/><path d="M966.83 559h-2V335H799.25v-2h167.58zM615.3 335v-2h53.05v2z"/><path d="M966.83 560h-2v-1.03h2zM614.3 338.64L600 334l14.27-4.64z"/><path d="M615.3 340l-18.52-6 18.5-6zm-12.04-6l10.03 3.26v-6.52z"/><use xlink:href="#p" transform="matrix(1,0,0,1,668.3476608411167,323.1999999999999) translate(0 14.4)"/><use xlink:href="#n" transform="matrix(1,0,0,1,668.3476608411167,323.1999999999999) translate(34 14.4)"/><use xlink:href="#q" transform="matrix(1,0,0,1,668.3476608411167,323.1999999999999) translate(95.9 14.4)"/><path d="M918.95 559h-2V368.33h-160.7v-2h162.7zM615.3 368.33v-2h51.04v2z"/><path d="M918.95 560h-2v-1.03h2zM614.3 371.97L600 367.33l14.27-4.63z"/><path d="M615.3 373.35l-18.52-6.02 18.5-6zm-12.04-6.02l10.03 3.26v-6.53z"/><use xlink:href="#p" transform="matrix(1,0,0,1,666.3377561293346,356.5333333333334) translate(0 14.4)"/><use xlink:href="#r" transform="matrix(1,0,0,1,666.3377561293346,356.5333333333334) translate(34 14.4)"/><path d="M632.87 1H537v180.5h-2V-1h97.87zm262.96 0h-105.3v-2h105.3z"/><path d="M896.83 1h-1.02v-2h1.03zM536 196.76l-4.64-14.26h9.28z"/><path d="M536 200l-6-18.5h12zm-3.26-16.5l3.26 10.03 3.26-10.03z"/><use xlink:href="#s" transform="matrix(1,0,0,1,632.8701154052605,-10.8) translate(0 14.4)"/><use xlink:href="#t" transform="matrix(1,0,0,1,632.8701154052605,-10.8) translate(32 14.4)"/><use xlink:href="#u" transform="matrix(1,0,0,1,632.8701154052605,-10.8) translate(100.9 14.4)"/><path d="M643.07-37h-132.9v220.98h-2V-39h134.9zm252.76 0h-108.9v-2h108.9z"/><path d="M896.83-37h-1.02v-2h1.03zM509.17 199.24l-4.64-14.26h9.27z"/><path d="M509.17 202.48l-6.02-18.5h12.03zm-3.26-16.5l3.27 10.03 3.26-10.02z"/><use xlink:href="#s" transform="matrix(1,0,0,1,643.068671225047,-48.8) translate(0 14.4)"/><use xlink:href="#v" transform="matrix(1,0,0,1,643.068671225047,-48.8) translate(32 14.4)"/><use xlink:href="#w" transform="matrix(1,0,0,1,643.068671225047,-48.8) translate(70.95 14.4)"/><use xlink:href="#x" transform="matrix(1,0,0,1,643.068671225047,-48.8) translate(104.95 14.4)"/><path d="M496.95 116h82.76v60h-82.75z" fill="none"/><path d="M496.95 116h19.37v7.38h-19.37V116zM517.97 116h19.3v7.38h-19.3V116zM539.24 116h19.3v7.38h-19.3V116zM560.26 116h19.37v7.38h-19.37V116zM497.12 124.7h9.43v7.68h-9.43v-7.68zM508.54 124.7h19.37v7.38h-19.36v-7.38zM530.14 124.7h19.28v7.38h-19.28v-7.38zM551.82 124.7h19.37v7.38H551.8v-7.38zM572.76 124.7h6.7v7.68h-6.7v-7.68zM496.95 133.88h19.37v7.32h-19.37v-7.32zM517.97 133.88h19.37v7.32h-19.37v-7.32zM539.24 133.88h19.37v7.32h-19.36v-7.32zM560.35 133.88h19.36v7.32h-19.35v-7.32zM497.12 142.7h9.43v7.68h-9.43v-7.68zM508.54 142.7h19.37v7.38h-19.36v-7.38zM530.14 142.7h19.37v7.38h-19.36v-7.38zM551.9 142.7h19.3v7.38h-19.3v-7.38zM572.84 142.7h6.7v7.68h-6.7v-7.68zM496.95 151.58h19.37v7.38h-19.37v-7.38zM517.97 151.58h19.37v7.38h-19.37v-7.38zM539.24 151.58h19.37v7.38h-19.36v-7.38zM560.35 151.58h19.36v7.38h-19.35v-7.38zM497.12 159.8h9.43v7.68h-9.43v-7.68zM508.54 159.8h19.37v7.38h-19.36v-7.38zM530.14 159.8h19.37v7.38h-19.36v-7.38zM551.9 159.8h19.3v7.38h-19.3v-7.38zM572.84 159.8h6.7v7.68h-6.7v-7.68zM496.95 168.68h19.37v7.38h-19.37v-7.38zM517.97 168.68h19.37v7.38h-19.37v-7.38zM539.24 168.68h19.37v7.38h-19.36v-7.38zM560.35 168.68h19.36v7.38h-19.35v-7.38z" fill="#29aae1"/><path d="M579.7 116h71.82v60h-71.8z" stroke="#000" stroke-opacity="0" stroke-width="2" fill="#fff" fill-opacity="0"/><g><use xlink:href="#y" transform="matrix(1,0,0,1,584.7126436781609,121) translate(9.024999999999999 28.6)"/></g><path d="M895.83 575.33H820v17.34h58.33" stroke="#000" stroke-width="2" fill="none"/><path d="M896.83 576.33h-1.02v-2h1.03z"/><path d="M893.6 592.67l-14.27 4.63v-9.27z" stroke="#000" stroke-width="2"/><g><use xlink:href="#z" transform="matrix(1,0,0,1,675.1500000000001,573.2) translate(0 14.4)"/><use xlink:href="#A" transform="matrix(1,0,0,1,675.1500000000001,573.2) translate(79.95 14.4)"/></g><path d="M895.83 620H820v15.84h58.33" stroke="#000" stroke-width="2" fill="none"/><path d="M896.83 621h-1.02v-2h1.03z"/><path d="M893.6 635.84l-14.27 4.64v-9.28z" stroke="#000" stroke-width="2"/><g><use xlink:href="#B" transform="matrix(1,0,0,1,765.05,617.1200000000002) translate(0 14.4)"/></g><defs><path d="M185-189c-5-48-123-54-124 2 14 75 158 14 163 119 3 78-121 87-175 55-17-10-28-26-33-46l33-7c5 56 141 63 141-1 0-78-155-14-162-118-5-82 145-84 179-34 5 7 8 16 11 25" id="C"/><path d="M100-194c63 0 86 42 84 106H49c0 40 14 67 53 68 26 1 43-12 49-29l28 8c-11 28-37 45-77 45C44 4 14-33 15-96c1-61 26-98 85-98zm52 81c6-60-76-77-97-28-3 7-6 17-6 28h103" id="D"/><path d="M114-163C36-179 61-72 57 0H25l-1-190h30c1 12-1 29 2 39 6-27 23-49 58-41v29" id="E"/><path d="M108 0H70L1-190h34L89-25l56-165h34" id="F"/><g id="a"><use transform="matrix(0.05,0,0,0.05,0,0)" xlink:href="#C"/><use transform="matrix(0.05,0,0,0.05,12,0)" xlink:href="#D"/><use transform="matrix(0.05,0,0,0.05,22,0)" xlink:href="#E"/><use transform="matrix(0.05,0,0,0.05,27.950000000000003,0)" xlink:href="#F"/><use transform="matrix(0.05,0,0,0.05,36.95,0)" xlink:href="#D"/><use transform="matrix(0.05,0,0,0.05,46.95,0)" xlink:href="#E"/></g><path d="M232-93c-1 65-40 97-104 97C67 4 28-28 28-90v-158h33c8 89-33 224 67 224 102 0 64-133 71-224h33v155" id="G"/><path d="M135-143c-3-34-86-38-87 0 15 53 115 12 119 90S17 21 10-45l28-5c4 36 97 45 98 0-10-56-113-15-118-90-4-57 82-63 122-42 12 7 21 19 24 35" id="H"/><g id="b"><use transform="matrix(0.05,0,0,0.05,0,0)" xlink:href="#G"/><use transform="matrix(0.05,0,0,0.05,12.950000000000001,0)" xlink:href="#H"/><use transform="matrix(0.05,0,0,0.05,21.950000000000003,0)" xlink:href="#D"/><use transform="matrix(0.05,0,0,0.05,31.950000000000003,0)" xlink:href="#E"/></g><path d="M30 0v-248h33v221h125V0H30" id="I"/><path d="M141-36C126-15 110 5 73 4 37 3 15-17 15-53c-1-64 63-63 125-63 3-35-9-54-41-54-24 1-41 7-42 31l-33-3c5-37 33-52 76-52 45 0 72 20 72 64v82c-1 20 7 32 28 27v20c-31 9-61-2-59-35zM48-53c0 20 12 33 32 33 41-3 63-29 60-74-43 2-92-5-92 41" id="J"/><path d="M115-194c55 1 70 41 70 98S169 2 115 4C84 4 66-9 55-30l1 105H24l-1-265h31l2 30c10-21 28-34 59-34zm-8 174c40 0 45-34 45-75s-6-73-45-74c-42 0-51 32-51 76 0 43 10 73 51 73" id="K"/><path d="M59-47c-2 24 18 29 38 22v24C64 9 27 4 27-40v-127H5v-23h24l9-43h21v43h35v23H59v120" id="L"/><path d="M100-194c62-1 85 37 85 99 1 63-27 99-86 99S16-35 15-95c0-66 28-99 85-99zM99-20c44 1 53-31 53-75 0-43-8-75-51-75s-53 32-53 75 10 74 51 75" id="M"/><g id="c"><use transform="matrix(0.05,0,0,0.05,0,0)" xlink:href="#I"/><use transform="matrix(0.05,0,0,0.05,10,0)" xlink:href="#J"/><use transform="matrix(0.05,0,0,0.05,20,0)" xlink:href="#K"/><use transform="matrix(0.05,0,0,0.05,30,0)" xlink:href="#L"/><use transform="matrix(0.05,0,0,0.05,35,0)" xlink:href="#M"/><use transform="matrix(0.05,0,0,0.05,45,0)" xlink:href="#K"/></g><path d="M30-248c118-7 216 8 213 122C240-48 200 0 122 0H30v-248zM63-27c89 8 146-16 146-99s-60-101-146-95v194" id="N"/><path d="M24-231v-30h32v30H24zM24 0v-190h32V0H24" id="O"/><path d="M96-169c-40 0-48 33-48 73s9 75 48 75c24 0 41-14 43-38l32 2c-6 37-31 61-74 61-59 0-76-41-82-99-10-93 101-131 147-64 4 7 5 14 7 22l-32 3c-4-21-16-35-41-35" id="P"/><g id="d"><use transform="matrix(0.05,0,0,0.05,0,0)" xlink:href="#N"/><use transform="matrix(0.05,0,0,0.05,12.950000000000001,0)" xlink:href="#D"/><use transform="matrix(0.05,0,0,0.05,22.950000000000003,0)" xlink:href="#F"/><use transform="matrix(0.05,0,0,0.05,31.950000000000003,0)" xlink:href="#O"/><use transform="matrix(0.05,0,0,0.05,35.900000000000006,0)" xlink:href="#P"/><use transform="matrix(0.05,0,0,0.05,44.900000000000006,0)" xlink:href="#D"/></g><path d="M160-131c35 5 61 23 61 61C221 17 115-2 30 0v-248c76 3 177-17 177 60 0 33-19 50-47 57zm-97-11c50-1 110 9 110-42 0-47-63-36-110-37v79zm0 115c55-2 124 14 124-45 0-56-70-42-124-44v89" id="Q"/><path d="M85-194c31 0 48 13 60 33l-1-100h32l1 261h-30c-2-10 0-23-3-31C134-8 116 4 85 4 32 4 16-35 15-94c0-66 23-100 70-100zm9 24c-40 0-46 34-46 75 0 40 6 74 45 74 42 0 51-32 51-76 0-42-9-74-50-73" id="R"/><g id="e"><use transform="matrix(0.05,0,0,0.05,0,0)" xlink:href="#Q"/><use transform="matrix(0.05,0,0,0.05,12,0)" xlink:href="#E"/><use transform="matrix(0.05,0,0,0.05,17.95,0)" xlink:href="#M"/><use transform="matrix(0.05,0,0,0.05,27.950000000000003,0)" xlink:href="#J"/><use transform="matrix(0.05,0,0,0.05,37.95,0)" xlink:href="#R"/><use transform="matrix(0.05,0,0,0.05,47.95,0)" xlink:href="#P"/><use transform="matrix(0.05,0,0,0.05,56.95,0)" xlink:href="#J"/><use transform="matrix(0.05,0,0,0.05,66.95,0)" xlink:href="#H"/><use transform="matrix(0.05,0,0,0.05,75.95,0)" xlink:href="#L"/></g><path d="M177-190C167-65 218 103 67 71c-23-6-38-20-44-43l32-5c15 47 100 32 89-28v-30C133-14 115 1 83 1 29 1 15-40 15-95c0-56 16-97 71-98 29-1 48 16 59 35 1-10 0-23 2-32h30zM94-22c36 0 50-32 50-73 0-42-14-75-50-75-39 0-46 34-46 75s6 73 46 73" id="S"/><path d="M117-194c89-4 53 116 60 194h-32v-121c0-31-8-49-39-48C34-167 62-67 57 0H25l-1-190h30c1 10-1 24 2 32 11-22 29-35 61-36" id="T"/><path d="M24 0v-261h32V0H24" id="U"/><g id="f"><use transform="matrix(0.05,0,0,0.05,0,0)" xlink:href="#H"/><use transform="matrix(0.05,0,0,0.05,9,0)" xlink:href="#O"/><use transform="matrix(0.05,0,0,0.05,12.949999999999998,0)" xlink:href="#S"/><use transform="matrix(0.05,0,0,0.05,22.95,0)" xlink:href="#T"/><use transform="matrix(0.05,0,0,0.05,32.95,0)" xlink:href="#J"/><use transform="matrix(0.05,0,0,0.05,42.95,0)" xlink:href="#U"/></g><path d="M33 0v-248h34V0H33" id="V"/><path d="M179-190L93 31C79 59 56 82 12 73V49c39 6 53-20 64-50L1-190h34L92-34l54-156h33" id="W"/><g id="g"><use transform="matrix(0.05,0,0,0.05,0,0)" xlink:href="#V"/><use transform="matrix(0.05,0,0,0.05,5,0)" xlink:href="#R"/><use transform="matrix(0.05,0,0,0.05,15,0)" xlink:href="#D"/><use transform="matrix(0.05,0,0,0.05,25,0)" xlink:href="#T"/><use transform="matrix(0.05,0,0,0.05,35,0)" xlink:href="#L"/><use transform="matrix(0.05,0,0,0.05,40,0)" xlink:href="#O"/><use transform="matrix(0.05,0,0,0.05,43.95,0)" xlink:href="#L"/><use transform="matrix(0.05,0,0,0.05,48.95,0)" xlink:href="#W"/></g><g id="h"><use transform="matrix(0.05,0,0,0.05,0,0)" xlink:href="#L"/><use transform="matrix(0.05,0,0,0.05,5,0)" xlink:href="#E"/><use transform="matrix(0.05,0,0,0.05,10.95,0)" xlink:href="#D"/><use transform="matrix(0.05,0,0,0.05,20.95,0)" xlink:href="#D"/></g><g id="i"><use transform="matrix(0.05,0,0,0.05,0,0)" xlink:href="#C"/><use transform="matrix(0.05,0,0,0.05,12,0)" xlink:href="#O"/><use transform="matrix(0.05,0,0,0.05,15.949999999999998,0)" xlink:href="#S"/><use transform="matrix(0.05,0,0,0.05,25.950000000000003,0)" xlink:href="#T"/><use transform="matrix(0.05,0,0,0.05,35.95,0)" xlink:href="#J"/><use transform="matrix(0.05,0,0,0.05,45.95,0)" xlink:href="#U"/><use transform="matrix(0.05,0,0,0.05,49.900000000000006,0)" xlink:href="#H"/></g><path d="M140-251c81 0 123 46 123 126C263-46 219 4 140 4 59 4 17-45 17-125s42-126 123-126zm0 227c63 0 89-41 89-101s-29-99-89-99c-61 0-89 39-89 99S79-25 140-24" id="X"/><path d="M206 0h-36l-40-164L89 0H53L-1-190h32L70-26l43-164h34l41 164 42-164h31" id="Y"/><g id="j"><use transform="matrix(0.05,0,0,0.05,0,0)" xlink:href="#X"/><use transform="matrix(0.05,0,0,0.05,14,0)" xlink:href="#Y"/><use transform="matrix(0.05,0,0,0.05,26.950000000000003,0)" xlink:href="#T"/><use transform="matrix(0.05,0,0,0.05,36.95,0)" xlink:href="#D"/><use transform="matrix(0.05,0,0,0.05,46.95,0)" xlink:href="#E"/></g><g id="k"><use transform="matrix(0.05,0,0,0.05,0,0)" xlink:href="#I"/><use transform="matrix(0.05,0,0,0.05,10,0)" xlink:href="#J"/><use transform="matrix(0.05,0,0,0.05,20,0)" xlink:href="#K"/><use transform="matrix(0.05,0,0,0.05,30,0)" xlink:href="#L"/><use transform="matrix(0.05,0,0,0.05,35,0)" xlink:href="#M"/><use transform="matrix(0.05,0,0,0.05,45,0)" xlink:href="#K"/></g><g id="l"><use transform="matrix(0.05,0,0,0.05,0,0)" xlink:href="#N"/><use transform="matrix(0.05,0,0,0.05,12.950000000000001,0)" xlink:href="#D"/><use transform="matrix(0.05,0,0,0.05,22.950000000000003,0)" xlink:href="#F"/><use transform="matrix(0.05,0,0,0.05,31.950000000000003,0)" xlink:href="#O"/><use transform="matrix(0.05,0,0,0.05,35.900000000000006,0)" xlink:href="#P"/><use transform="matrix(0.05,0,0,0.05,44.900000000000006,0)" xlink:href="#D"/></g><path d="M205 0l-28-72H64L36 0H1l101-248h38L239 0h-34zm-38-99l-47-123c-12 45-31 82-46 123h93" id="Z"/><g id="m"><use transform="matrix(0.05,0,0,0.05,0,0)" xlink:href="#Z"/><use transform="matrix(0.05,0,0,0.05,12,0)" xlink:href="#R"/><use transform="matrix(0.05,0,0,0.05,22,0)" xlink:href="#R"/></g><g id="n"><use transform="matrix(0.05,0,0,0.05,0,0)" xlink:href="#O"/><use transform="matrix(0.05,0,0,0.05,3.95,0)" xlink:href="#R"/><use transform="matrix(0.05,0,0,0.05,13.949999999999998,0)" xlink:href="#D"/><use transform="matrix(0.05,0,0,0.05,23.95,0)" xlink:href="#T"/><use transform="matrix(0.05,0,0,0.05,33.95,0)" xlink:href="#L"/><use transform="matrix(0.05,0,0,0.05,38.95,0)" xlink:href="#O"/><use transform="matrix(0.05,0,0,0.05,42.900000000000006,0)" xlink:href="#L"/><use transform="matrix(0.05,0,0,0.05,47.900000000000006,0)" xlink:href="#W"/></g><path d="M210-169c-67 3-38 105-44 169h-31v-121c0-29-5-50-35-48C34-165 62-65 56 0H25l-1-190h30c1 10-1 24 2 32 10-44 99-50 107 0 11-21 27-35 58-36 85-2 47 119 55 194h-31v-121c0-29-5-49-35-48" id="aa"/><g id="o"><use transform="matrix(0.05,0,0,0.05,0,0)" xlink:href="#P"/><use transform="matrix(0.05,0,0,0.05,9,0)" xlink:href="#M"/><use transform="matrix(0.05,0,0,0.05,19,0)" xlink:href="#aa"/><use transform="matrix(0.05,0,0,0.05,33.95,0)" xlink:href="#aa"/><use transform="matrix(0.05,0,0,0.05,48.900000000000006,0)" xlink:href="#O"/><use transform="matrix(0.05,0,0,0.05,52.85,0)" xlink:href="#L"/><use transform="matrix(0.05,0,0,0.05,57.85,0)" xlink:href="#aa"/><use transform="matrix(0.05,0,0,0.05,72.80000000000001,0)" xlink:href="#D"/><use transform="matrix(0.05,0,0,0.05,82.80000000000001,0)" xlink:href="#T"/><use transform="matrix(0.05,0,0,0.05,92.80000000000001,0)" xlink:href="#L"/></g><path d="M143 4C61 4 22-44 18-125c-5-107 100-154 193-111 17 8 29 25 37 43l-32 9c-13-25-37-40-76-40-61 0-88 39-88 99 0 61 29 100 91 101 35 0 62-11 79-27v-45h-74v-28h105v86C228-13 192 4 143 4" id="ab"/><g id="p"><use transform="matrix(0.05,0,0,0.05,0,0)" xlink:href="#ab"/><use transform="matrix(0.05,0,0,0.05,14,0)" xlink:href="#D"/><use transform="matrix(0.05,0,0,0.05,24,0)" xlink:href="#L"/></g><path d="M106-169C34-169 62-67 57 0H25v-261h32l-1 103c12-21 28-36 61-36 89 0 53 116 60 194h-32v-121c2-32-8-49-39-48" id="ac"/><g id="q"><use transform="matrix(0.05,0,0,0.05,0,0)" xlink:href="#K"/><use transform="matrix(0.05,0,0,0.05,10,0)" xlink:href="#J"/><use transform="matrix(0.05,0,0,0.05,20,0)" xlink:href="#L"/><use transform="matrix(0.05,0,0,0.05,25,0)" xlink:href="#ac"/></g><g id="r"><use transform="matrix(0.05,0,0,0.05,0,0)" xlink:href="#H"/><use transform="matrix(0.05,0,0,0.05,9,0)" xlink:href="#O"/><use transform="matrix(0.05,0,0,0.05,12.949999999999998,0)" xlink:href="#S"/><use transform="matrix(0.05,0,0,0.05,22.95,0)" xlink:href="#T"/><use transform="matrix(0.05,0,0,0.05,32.95,0)" xlink:href="#J"/><use transform="matrix(0.05,0,0,0.05,42.95,0)" xlink:href="#U"/><use transform="matrix(0.05,0,0,0.05,46.900000000000006,0)" xlink:href="#H"/></g><g id="s"><use transform="matrix(0.05,0,0,0.05,0,0)" xlink:href="#C"/><use transform="matrix(0.05,0,0,0.05,12,0)" xlink:href="#D"/><use transform="matrix(0.05,0,0,0.05,22,0)" xlink:href="#L"/></g><path d="M141 0L90-78 38 0H4l68-98-65-92h35l48 74 47-74h35l-64 92 68 98h-35" id="ad"/><g id="t"><use transform="matrix(0.05,0,0,0.05,0,0)" xlink:href="#D"/><use transform="matrix(0.05,0,0,0.05,10,0)" xlink:href="#ad"/><use transform="matrix(0.05,0,0,0.05,19,0)" xlink:href="#L"/><use transform="matrix(0.05,0,0,0.05,24,0)" xlink:href="#D"/><use transform="matrix(0.05,0,0,0.05,34,0)" xlink:href="#E"/><use transform="matrix(0.05,0,0,0.05,39.95,0)" xlink:href="#T"/><use transform="matrix(0.05,0,0,0.05,49.95,0)" xlink:href="#J"/><use transform="matrix(0.05,0,0,0.05,59.95,0)" xlink:href="#U"/></g><path d="M84 4C-5 8 30-112 23-190h32v120c0 31 7 50 39 49 72-2 45-101 50-169h31l1 190h-30c-1-10 1-25-2-33-11 22-28 36-60 37" id="ae"/><path d="M101-234c-31-9-42 10-38 44h38v23H63V0H32v-167H5v-23h27c-7-52 17-82 69-68v24" id="af"/><g id="u"><use transform="matrix(0.05,0,0,0.05,0,0)" xlink:href="#T"/><use transform="matrix(0.05,0,0,0.05,10,0)" xlink:href="#ae"/><use transform="matrix(0.05,0,0,0.05,20,0)" xlink:href="#U"/><use transform="matrix(0.05,0,0,0.05,23.95,0)" xlink:href="#U"/><use transform="matrix(0.05,0,0,0.05,27.899999999999995,0)" xlink:href="#O"/><use transform="matrix(0.05,0,0,0.05,31.849999999999994,0)" xlink:href="#af"/><use transform="matrix(0.05,0,0,0.05,36.849999999999994,0)" xlink:href="#O"/><use transform="matrix(0.05,0,0,0.05,40.8,0)" xlink:href="#D"/><use transform="matrix(0.05,0,0,0.05,50.8,0)" xlink:href="#E"/></g><g id="v"><use transform="matrix(0.05,0,0,0.05,0,0)" xlink:href="#aa"/><use transform="matrix(0.05,0,0,0.05,14.950000000000001,0)" xlink:href="#J"/><use transform="matrix(0.05,0,0,0.05,24.950000000000003,0)" xlink:href="#ad"/></g><g id="w"><use transform="matrix(0.05,0,0,0.05,0,0)" xlink:href="#S"/><use transform="matrix(0.05,0,0,0.05,10,0)" xlink:href="#J"/><use transform="matrix(0.05,0,0,0.05,20,0)" xlink:href="#H"/></g><g id="x"><use transform="matrix(0.05,0,0,0.05,0,0)" xlink:href="#K"/><use transform="matrix(0.05,0,0,0.05,10,0)" xlink:href="#E"/><use transform="matrix(0.05,0,0,0.05,15.949999999999998,0)" xlink:href="#O"/><use transform="matrix(0.05,0,0,0.05,19.9,0)" xlink:href="#P"/><use transform="matrix(0.05,0,0,0.05,28.899999999999995,0)" xlink:href="#D"/></g><g id="y"><use transform="matrix(0.05,0,0,0.05,0,0)" xlink:href="#I"/><use transform="matrix(0.05,0,0,0.05,10,0)" xlink:href="#M"/><use transform="matrix(0.05,0,0,0.05,20,0)" xlink:href="#S"/><use transform="matrix(0.05,0,0,0.05,30,0)" xlink:href="#O"/><use transform="matrix(0.05,0,0,0.05,33.95,0)" xlink:href="#T"/></g><g id="z"><use transform="matrix(0.05,0,0,0.05,0,0)" xlink:href="#ab"/><use transform="matrix(0.05,0,0,0.05,14,0)" xlink:href="#D"/><use transform="matrix(0.05,0,0,0.05,24,0)" xlink:href="#T"/><use transform="matrix(0.05,0,0,0.05,34,0)" xlink:href="#D"/><use transform="matrix(0.05,0,0,0.05,44,0)" xlink:href="#E"/><use transform="matrix(0.05,0,0,0.05,49.95,0)" xlink:href="#J"/><use transform="matrix(0.05,0,0,0.05,59.95,0)" xlink:href="#L"/><use transform="matrix(0.05,0,0,0.05,64.95,0)" xlink:href="#D"/></g><g id="A"><use transform="matrix(0.05,0,0,0.05,0,0)" xlink:href="#O"/><use transform="matrix(0.05,0,0,0.05,3.95,0)" xlink:href="#R"/><use transform="matrix(0.05,0,0,0.05,13.949999999999998,0)" xlink:href="#D"/><use transform="matrix(0.05,0,0,0.05,23.95,0)" xlink:href="#T"/><use transform="matrix(0.05,0,0,0.05,33.95,0)" xlink:href="#L"/><use transform="matrix(0.05,0,0,0.05,38.95,0)" xlink:href="#O"/><use transform="matrix(0.05,0,0,0.05,42.900000000000006,0)" xlink:href="#L"/><use transform="matrix(0.05,0,0,0.05,47.900000000000006,0)" xlink:href="#W"/></g><path d="M30-248c87 1 191-15 191 75 0 78-77 80-158 76V0H30v-248zm33 125c57 0 124 11 124-50 0-59-68-47-124-48v98" id="ag"/><g id="B"><use transform="matrix(0.05,0,0,0.05,0,0)" xlink:href="#ag"/><use transform="matrix(0.05,0,0,0.05,12,0)" xlink:href="#E"/><use transform="matrix(0.05,0,0,0.05,17.95,0)" xlink:href="#M"/><use transform="matrix(0.05,0,0,0.05,27.950000000000003,0)" xlink:href="#F"/><use transform="matrix(0.05,0,0,0.05,36.95,0)" xlink:href="#D"/></g></defs></g></svg>